<?xml version="1.0" encoding="utf-8"?>
<!-- Generator: Adobe Illustrator 24.0.2, SVG Export Plug-In . SVG Version: 6.00 Build 0)  -->
<svg version="1.1" id="Layer_1" xmlns="http://www.w3.org/2000/svg" xmlns:xlink="http://www.w3.org/1999/xlink" x="0px" y="0px"
	 viewBox="0 0 512 512" enable-background="new 0 0 512 512" xml:space="preserve">
<g>
	<g>
		<path fill="#77D0DE" d="M303.4,507.5H91.7c0,0,35.1-154.6,36.4-181.4c0.3-5.3,0.3-10.3,0-14.9c-0.4-5.7-1.2-10.8-2.5-15
			c-7.6-24-43.6-103.6-36-153.8C97.2,92.3,146.4,12.7,259,12.7c89.7,0,132.7,53.4,141.3,66.5c15.4,23.2,27.3,72.5,27.3,92.4
			c0,19.9-2.2,47.5,12,68.1c14.1,20.6,24.9,36.8,22.2,44.2c-2.6,7.1-13.9,12.4-24.4,13.4c-0.2,0.6-0.3,1.3-0.4,2
			c-0.4,2.3-0.4,4.7-0.2,7.2c0.3,4.6,1.2,9.4,1.7,13.2c0.5,3.4,0.8,6.1,0.2,7.4c-1.6,3.7-10.9,7-16.6,8.3c10.4,0.8,14.8,4.5,12,10.6
			c-0.8,1.8-2.3,3.3-4,4.6c-6,4.8-15.6,8-16.2,15c-0.4,4.2,1.9,11.2,3.6,18.4c1.9,8.3,2.9,17-1.9,22.5c-9,10.4-32.4,17.4-56.9,11.7
			c-23-5.3-31.4-8.3-36.8-11.1c-0.4-0.2-0.8-0.4-1.1-0.6c-4.6,10.1-8.1,24.6-9.3,31.9C303.1,489.9,303.4,507.5,303.4,507.5z"/>
	</g>
</g>
<g>
	<g>
		
			<ellipse transform="matrix(0.2314 -0.9729 0.9729 0.2314 25.414 392.0588)" fill="#FFFFFF" cx="260.8" cy="179.9" rx="134.3" ry="134.3"/>
	</g>
</g>
<g>
	<g>
		<path fill="#606466" d="M269,299.2c-2.1,0-4-1.7-4.1-3.8c-0.2-2.3,1.6-4.2,3.8-4.4c7.9-0.6,15.8-2,23.4-4.2
			c2.2-0.6,4.5,0.6,5.1,2.8c0.6,2.2-0.6,4.5-2.8,5.1c-8.2,2.4-16.6,3.9-25.2,4.5C269.2,299.2,269.1,299.2,269,299.2z M244.4,298.4
			c-0.2,0-0.4,0-0.6,0c-8.5-1.2-16.8-3.3-24.8-6.3c-2.1-0.8-3.2-3.2-2.4-5.3c0.8-2.1,3.2-3.2,5.3-2.4c7.4,2.8,15.2,4.7,23.1,5.9
			c2.3,0.3,3.8,2.4,3.5,4.7C248.2,296.9,246.4,298.4,244.4,298.4z M316.2,285.4c-1.5,0-2.9-0.8-3.6-2.1c-1.1-2-0.4-4.5,1.6-5.6
			c7-3.8,13.5-8.4,19.5-13.6c1.7-1.5,4.3-1.3,5.8,0.4c1.5,1.7,1.3,4.3-0.4,5.8c-6.5,5.6-13.5,10.5-21,14.6
			C317.5,285.3,316.8,285.4,316.2,285.4z M198.4,281.2c-0.8,0-1.5-0.2-2.2-0.7c-7.2-4.6-13.9-10-19.9-16.1c-1.6-1.6-1.6-4.2,0-5.8
			c1.6-1.6,4.2-1.6,5.8,0c5.6,5.6,11.9,10.7,18.5,15c1.9,1.2,2.5,3.8,1.2,5.7C201.1,280.5,199.7,281.2,198.4,281.2z M353.2,253.3
			c-0.9,0-1.7-0.3-2.5-0.8c-1.8-1.4-2.2-4-0.8-5.8c4.8-6.4,8.9-13.2,12.2-20.5c0.9-2.1,3.4-3,5.5-2c2.1,0.9,3,3.4,2,5.5
			c-3.5,7.8-7.9,15.2-13.1,22C355.7,252.7,354.5,253.3,353.2,253.3z M163.7,246.5c-1.4,0-2.7-0.7-3.5-1.9
			c-4.6-7.2-8.5-14.9-11.5-22.9c-0.8-2.1,0.3-4.5,2.4-5.3c2.1-0.8,4.5,0.3,5.3,2.4c2.8,7.4,6.4,14.6,10.7,21.3
			c1.2,1.9,0.7,4.5-1.2,5.7C165.2,246.3,164.4,246.5,163.7,246.5z M373.7,208.6c-0.3,0-0.6,0-0.9-0.1c-2.2-0.5-3.6-2.7-3.2-4.9
			c1.7-7.7,2.5-15.7,2.5-23.7c0-2.1,1.6-3.9,3.7-4.1c-2.1-0.1-3.8-1.7-3.9-3.8c-0.6-7.9-2-15.8-4.2-23.4c-0.6-2.2,0.6-4.5,2.8-5.1
			c2.2-0.6,4.5,0.6,5.1,2.8c2.4,8.2,3.9,16.6,4.5,25.2c0.2,2.2-1.5,4.1-3.7,4.4c2.2,0.1,4,1.9,4,4.1c0,8.6-0.9,17.1-2.7,25.4
			C377.3,207.3,375.6,208.6,373.7,208.6z M146.5,200.5c-2,0-3.8-1.5-4.1-3.5c-0.8-5.6-1.2-11.3-1.2-17c0-2.9,0.1-5.7,0.3-8.5
			c0.2-2.3,2.1-4,4.4-3.8c2.3,0.2,4,2.1,3.8,4.4c-0.2,2.6-0.3,5.3-0.3,8c0,5.3,0.4,10.6,1.1,15.8c0.3,2.3-1.2,4.3-3.5,4.7
			C146.9,200.5,146.7,200.5,146.5,200.5z M150,151.5c-0.4,0-0.8-0.1-1.2-0.2c-2.2-0.6-3.4-2.9-2.8-5.1c2.4-8.2,5.7-16.1,9.8-23.6
			c1.1-2,3.6-2.7,5.6-1.6c2,1.1,2.7,3.6,1.6,5.6c-3.8,7-6.9,14.4-9.1,22C153.4,150.4,151.8,151.5,150,151.5z M362.2,128.7
			c-1.5,0-2.9-0.8-3.6-2.1c-3.8-7-8.4-13.5-13.6-19.5c-1.5-1.7-1.3-4.3,0.4-5.8c1.7-1.5,4.3-1.3,5.8,0.4c5.6,6.5,10.5,13.5,14.6,21
			c1.1,2,0.4,4.5-1.6,5.6C363.5,128.6,362.9,128.7,362.2,128.7z M173.6,108.4c-1,0-1.9-0.3-2.7-1c-1.7-1.5-1.9-4.1-0.4-5.8
			c5.6-6.4,11.9-12.3,18.7-17.4c1.8-1.4,4.4-1,5.8,0.8c1.4,1.8,1,4.4-0.8,5.8c-6.4,4.8-12.2,10.2-17.4,16.2
			C175.9,108,174.7,108.4,173.6,108.4z M330,91.7c-0.9,0-1.7-0.3-2.5-0.8c-6.4-4.8-13.3-8.9-20.5-12.2c-2.1-0.9-3-3.4-2-5.5
			c0.9-2.1,3.4-3,5.5-2c7.7,3.5,15.1,7.9,22,13.1c1.8,1.4,2.2,3.9,0.8,5.8C332.5,91.1,331.3,91.7,330,91.7z M212.9,79
			c-1.6,0-3.1-0.9-3.8-2.4c-0.9-2.1,0-4.5,2-5.5c7.8-3.6,15.9-6.3,24.3-8.1c2.2-0.5,4.4,0.9,4.9,3.2c0.5,2.2-0.9,4.4-3.2,4.9
			c-7.8,1.7-15.3,4.2-22.6,7.5C214,78.9,213.4,79,212.9,79z M285.4,71.2c-0.3,0-0.6,0-0.9-0.1c-7.7-1.7-15.7-2.5-23.7-2.5
			c-2.3,0-4.1-1.8-4.1-4.1c0-2.3,1.8-4.1,4.1-4.1c8.6,0,17.1,0.9,25.4,2.7c2.2,0.5,3.6,2.7,3.2,4.9C289,69.9,287.3,71.2,285.4,71.2z
			"/>
	</g>
</g>
<g>
	<g>
		<g>
			<rect x="236.2" y="97.5" fill="#6BA417" width="49.2" height="164.9"/>
		</g>
	</g>
	<g>
		<g>
			<rect x="178.4" y="155.4" fill="#6BA417" width="164.9" height="49.2"/>
		</g>
	</g>
</g>
</svg>
